<svg xmlns="http://www.w3.org/2000/svg" width="1600" height="420" viewBox="0 0 1600 420" role="img" aria-labelledby="title desc">
  <title id="title">GitBook branded Jei Test Site banner</title>
  <desc id="desc">Light GitBook-style banner with orange accent shapes and Jei Test Site text.</desc>
  <defs>
    <linearGradient id="bg" x1="0" y1="0" x2="1" y2="1">
      <stop offset="0" stop-color="#FAFAF9"/>
      <stop offset="1" stop-color="#EFEEED"/>
    </linearGradient>
  </defs>
  <rect width="1600" height="420" fill="url(#bg)"/>
  <path d="M1110 34c153-22 331 29 388 151 58 124-30 206-170 183-143-24-280-132-288-233-4-52 24-92 70-101Z" fill="#F25B3A" opacity="0.2"/>
  <circle cx="1336" cy="196" r="114" fill="#F25B3A" opacity="0.34"/>
  <circle cx="1462" cy="102" r="36" fill="#1C1917" opacity="0.9"/>
  <g transform="translate(96 78)">
    <rect width="78" height="78" rx="20" fill="#1C1917"/>
    <path d="M26 23h24c11 0 20 9 20 20s-9 20-20 20H26V23Zm15 14v12h9a6 6 0 0 0 0-12h-9Z" fill="#F25B3A"/>
    <text x="108" y="52" font-family="Inter, Arial, sans-serif" font-size="44" font-weight="700" fill="#1C1917">GitBook</text>
  </g>
  <text x="96" y="230" font-family="Inter, Arial, sans-serif" font-size="72" font-weight="760" fill="#1C1917">Jei Test Site</text>
  <text x="99" y="286" font-family="Inter, Arial, sans-serif" font-size="28" fill="#57534D">A branded sandbox for testing docs workflows, publishing, permissions, AI search, and MCP-ready content.</text>
  <g transform="translate(100 336)" font-family="Inter, Arial, sans-serif" font-size="20">
    <rect x="0" y="-28" width="178" height="42" rx="21" fill="#F25B3A"/>
    <text x="24" y="0" font-weight="700" fill="#1C1917">GitBook brand</text>
    <rect x="202" y="-28" width="156" height="42" rx="21" fill="#FAFAF9" stroke="#79716B"/>
    <text x="226" y="0" fill="#1C1917">Sandbox</text>
    <rect x="382" y="-28" width="202" height="42" rx="21" fill="#FAFAF9" stroke="#79716B"/>
    <text x="406" y="0" fill="#1C1917">Content quality</text>
  </g>
</svg>
