<svg xmlns="http://www.w3.org/2000/svg" width="1600" height="420" viewBox="0 0 1600 420" role="img" aria-labelledby="title desc">
  <title id="title">Orbitly sandbox banner</title>
  <desc id="desc">Light Orbitly-branded banner with orbital product shapes and sandbox messaging.</desc>
  <defs>
    <linearGradient id="bg" x1="0" y1="0" x2="1" y2="1">
      <stop offset="0" stop-color="#F8FAFC"/>
      <stop offset="1" stop-color="#E0F2FE"/>
    </linearGradient>
  </defs>
  <rect width="1600" height="420" fill="url(#bg)"/>
  <circle cx="1292" cy="190" r="126" fill="#DBEAFE"/>
  <ellipse cx="1292" cy="190" rx="246" ry="82" fill="none" stroke="#2563EB" stroke-width="4" opacity="0.65" transform="rotate(-20 1292 190)"/>
  <ellipse cx="1292" cy="190" rx="196" ry="56" fill="none" stroke="#22D3EE" stroke-width="4" opacity="0.85" transform="rotate(27 1292 190)"/>
  <circle cx="1468" cy="120" r="20" fill="#F59E0B"/>
  <circle cx="1118" cy="248" r="13" fill="#2563EB"/>
  <g transform="translate(96 78)">
    <circle cx="39" cy="39" r="39" fill="#111827"/>
    <path d="M18 45c22-25 55-30 73-13 8 8 8 17 1 24-16 16-53 13-74-11Z" fill="none" stroke="#22D3EE" stroke-width="8" stroke-linecap="round"/>
    <circle cx="57" cy="30" r="8" fill="#F59E0B"/>
    <text x="108" y="52" font-family="Inter, Arial, sans-serif" font-size="44" font-weight="780" fill="#111827">Orbitly</text>
  </g>
  <text x="96" y="230" font-family="Inter, Arial, sans-serif" font-size="72" font-weight="780" fill="#111827">Jei Test Site</text>
  <text x="99" y="286" font-family="Inter, Arial, sans-serif" font-size="28" fill="#475569">A branded Orbitly sandbox for testing docs workflows, publishing, permissions, search, and MCP-ready content.</text>
  <g transform="translate(100 336)" font-family="Inter, Arial, sans-serif" font-size="20">
    <rect x="0" y="-28" width="156" height="42" rx="21" fill="#2563EB"/>
    <text x="24" y="0" font-weight="700" fill="#F8FAFC">Orbitly brand</text>
    <rect x="180" y="-28" width="156" height="42" rx="21" fill="#22D3EE"/>
    <text x="204" y="0" font-weight="700" fill="#111827">Sandbox</text>
    <rect x="360" y="-28" width="182" height="42" rx="21" fill="#F59E0B"/>
    <text x="384" y="0" font-weight="700" fill="#111827">Docs quality</text>
  </g>
</svg>
